<svg width="37" height="38" viewBox="0 0 37 38" fill="none" xmlns="http://www.w3.org/2000/svg">
<path d="M13.875 34.4167C14.7264 34.4167 15.4166 33.7264 15.4166 32.875C15.4166 32.0236 14.7264 31.3333 13.875 31.3333C13.0235 31.3333 12.3333 32.0236 12.3333 32.875C12.3333 33.7264 13.0235 34.4167 13.875 34.4167Z" stroke="black" stroke-width="2" stroke-linecap="round" stroke-linejoin="round"/>
<path d="M30.8334 34.4167C31.6848 34.4167 32.375 33.7264 32.375 32.875C32.375 32.0236 31.6848 31.3333 30.8334 31.3333C29.9819 31.3333 29.2917 32.0236 29.2917 32.875C29.2917 33.7264 29.9819 34.4167 30.8334 34.4167Z" stroke="black" stroke-width="2" stroke-linecap="round" stroke-linejoin="round"/>
<path d="M1.54169 2.04166H7.70835L11.84 22.6846C11.981 23.3944 12.3671 24.0319 12.9308 24.4857C13.4945 24.9395 14.1998 25.1805 14.9234 25.1667H29.9084C30.6319 25.1805 31.3372 24.9395 31.9009 24.4857C32.4646 24.0319 32.8507 23.3944 32.9917 22.6846L35.4584 9.74999H9.25002" stroke="black" stroke-width="2" stroke-linecap="round" stroke-linejoin="round"/>
</svg>
